<?xml version="1.0" encoding="utf-8"?>
<!-- Generator: Adobe Illustrator 15.0.2, SVG Export Plug-In . SVG Version: 6.00 Build 0)  -->
<svg version="1.2" baseProfile="tiny" id="Layer_1" xmlns="http://www.w3.org/2000/svg" xmlns:xlink="http://www.w3.org/1999/xlink"
	 x="0px" y="0px" width="454px" height="167px" viewBox="0 0 454 167" xml:space="preserve">
<g>
	<path d="M78.146,49.613c-2.292-0.325-3.619-0.488-3.984-0.488c-4.014,0-6.994,1.363-8.94,4.087v-1.586
		c0-0.732-0.298-1.332-0.893-1.799c-0.596-0.467-1.284-0.702-2.063-0.702c-0.903,0-1.673,0.316-2.31,0.947
		c-0.637,0.632-0.955,1.396-0.955,2.292v27.377c0,0.938,0.305,1.702,0.915,2.292c0.392,0.379,3.771,0.711,4.514-0.033
		c0.61-0.612,0.915-1.348,0.915-2.206V61.66c0-1.959,0.681-3.634,2.043-5.023c1.362-1.389,3.02-2.083,4.972-2.083
		c3.985,0,7.161-0.099,7.076,7.213V79.74c0,0.896,0.305,1.65,0.915,2.261c0.708,0.71,3.795,0.72,4.544-0.028
		c0.63-0.63,0.945-1.393,0.945-2.288V61.325c0-2.521-0.669-5.622-2.007-7.94C82.332,50.742,80.436,49.938,78.146,49.613z
		 M98.133,49.125c-0.936,0-1.708,0.295-2.318,0.885c-0.61,0.59-0.915,1.353-0.915,2.287v27.328c0,0.895,0.294,1.647,0.885,2.257
		c0.589,0.61,1.331,0.915,2.226,0.915c0.935,0,1.708-0.295,2.318-0.884c0.61-0.589,0.915-1.352,0.915-2.288V52.296
		c0-0.894-0.296-1.647-0.885-2.257C99.77,49.43,99.027,49.125,98.133,49.125z M134.193,53.829
		c-3.856-7.866-14.683-5.013-17.646-0.922v-1.281c0-0.732-0.298-1.332-0.893-1.799c-0.596-0.467-1.284-0.702-2.063-0.702
		c-0.904,0-1.674,0.315-2.311,0.946c-0.637,0.631-0.955,1.393-0.955,2.287v27.206c0,0.895,0.305,1.658,0.915,2.288
		c1.22,1.26,3.293,1.26,4.514,0.002c0.61-0.629,0.915-1.39,0.915-2.283V61.005c0-1.825,0.633-3.357,1.9-4.595
		c1.266-1.237,2.818-1.856,4.658-1.856c1.88,0,3.452,0.618,4.719,1.853c1.266,1.235,1.899,2.784,1.899,4.646v18.464
		c0,0.891,0.292,1.66,0.876,2.308c0.583,0.647,1.318,0.971,2.205,0.971c0.886,0,1.631-0.325,2.235-0.974
		c0.604-0.649,0.907-1.42,0.907-2.313V61.005c0-1.906,0.68-3.459,2.043-4.656c1.362-1.197,3.02-1.795,4.971-1.795
		c1.708,0,3.131,0.641,4.27,1.921c1.138,1.281,1.708,2.796,1.708,4.544v18.605c0,0.854,0.315,1.597,0.946,2.227
		c0.63,0.63,1.373,0.945,2.227,0.945c0.894,0,1.647-0.315,2.257-0.945c0.61-0.63,0.915-1.393,0.915-2.288V60.471
		C155.405,45.027,138.557,46.822,134.193,53.829z M100.689,35.339l-2.699,2.565l-3.697-0.436l1.605,3.359l-1.557,3.382l3.691-0.489
		l2.735,2.526l0.676-3.661l3.247-1.821l-3.273-1.774L100.689,35.339z M186.9,51.662c-2.562-2.033-5.551-3.09-8.967-3.172
		c-2.115-0.04-4.23,0.326-6.344,1.098c-4.636,1.748-9.154,7.121-9.154,15.701c0,4.708-0.199,9.704,5.738,14.006
		c2.806,2.034,5.652,3.05,8.54,3.05h3.172c1.342-0.407,2.338-0.753,2.989-1.037c1.992-0.65,3.802-1.626,5.429-2.928
		c1.423-1.098,2.729-3.269,2.729-4.327c0-1.504-0.732-2.399-2.196-2.684h-0.61c-0.692,0-1.773,1.216-2.058,1.46l-2.013,1.342
		c-1.058,0.732-1.932,1.241-2.623,1.525c-1.342,0.57-2.745,0.854-4.209,0.854c-1.871,0-3.498-0.525-4.88-1.575
		c-1.586-1.211-2.725-2.524-3.416-3.938c-0.488-1.292-0.753-2.14-0.793-2.544c-0.041-0.242-0.061-0.545-0.061-0.909h21.716
		c1.423,0,2.358-0.284,2.806-0.854c0.447-0.569,0.671-1.586,0.671-3.05c0-1.22-0.407-3.05-1.22-5.49
		C191.415,56.033,189.666,53.857,186.9,51.662z M167.869,62.946l0.427-1.403c0.569-1.87,0.976-2.968,1.22-3.294
		c1.789-2.358,3.436-3.741,4.941-4.148c1.87-0.488,3.172-0.671,3.904-0.549c2.196,0.366,4.016,1.302,5.459,2.806
		c1.443,1.505,2.43,3.233,2.958,5.185l0.366,1.403H167.869z M389.647,48.248c-20.76,0-23.591,3.55-33.972,15.159
		c-0.108-6.292-6.434-14.907-12.994-14.907c-11.981,0-18.046,0-23.876,0c0-5.684-4.078-19.156-24.046-13.763
		c-7.622-27.044-52.262-7.863-30.324,18.683c0.935,2.691-0.93,1.694-1.691,0.751c-0.851-1.053-17.151-15.423-28.054,2.361
		c0,0,0-8.745,0-18.976c0-17.577-33-21.95-33,0.087s0,45.036,0,54.656c0,9.619,0,18.539,0,20.987s2.369,14.079,15.925,14.079
		s16.88-10.671,16.88-16.88c0-2.416,0.065-6.293,0.065-6.293s1.246-0.418,1.246,6.293c0,11.228-0.061,19.893,3.938,26.629
		c16.769,28.253,61.272,19.244,43.902-10.536c-0.388-0.666,7.435-2.273,10.233-11.368c0,0,8.134,12.155,28.773,12.155
		c20.641,0,27.869-17.257,29.736-19.238c1.635,5.231,27.635,30.54,46.791,14.691c0,0,3.143,4.71,10.927,4.71
		c9.092,0,16.583-5.948,16.583-14.067c0-9.182,0-27.196,0-33.58S416.846,48.248,389.647,48.248z M252.711,139.455
		c-5.435-4.973-7.813-11.605-7.813-19.188v-14.75c0-2.832-0.98-5.207-2.938-7.125c-1.959-1.916-4.355-2.875-7.188-2.875h-8.125
		v15.875c0,2.5-0.793,4.521-2.375,6.063c-1.584,1.541-3.625,2.313-6.125,2.313s-4.521-0.771-6.063-2.313
		c-1.543-1.541-2.313-3.563-2.313-6.063v-72.25c0-2.5,0.77-4.541,2.313-6.125c1.541-1.582,3.563-2.375,6.063-2.375
		s4.541,0.793,6.125,2.375c1.582,1.584,2.375,3.625,2.375,6.125v35.375l5.375,0.125c2.75,0.084,5.125-0.854,7.125-2.813
		c2-1.957,3-4.313,3-7.063c0-5.75,2.791-8.625,8.375-8.625c5,0,8.074,3.205,8.074,8.205c0,7.584-2.324,14.213-7.824,19.545
		c7.332,5.418,10.063,12.54,10.063,21.54v14.75c0,5.666,5.396,10.21,11.062,10.21h0.5c2.5,0,4.996,0.44,6.125,2.375
		C284.371,142.786,268.735,154.115,252.711,139.455z M286.147,111.393c0,2.5-0.793,4.521-2.375,6.063
		c-1.584,1.541-3.625,2.313-6.125,2.313s-4.521-0.771-6.063-2.313c-1.543-1.541-2.313-3.563-2.313-6.063V64.518
		c0-2.5,0.77-4.52,2.313-6.063c1.541-1.541,3.563-2.313,6.063-2.313c5.666,0,8.5,2.793,8.5,8.375V111.393z M281.366,43.768
		l-1.215,6.495l-4.845-4.494l-6.553,0.852l2.776-5.996l-2.835-5.969l6.561,0.787l4.801-4.541l1.278,6.483l5.802,3.162
		L281.366,43.768z M310.646,73.268v19.5c0,2.834,0.979,5.23,2.938,7.188c1.957,1.959,4.354,2.938,7.188,2.938
		c2.832,0,5.207-0.979,7.125-2.938c1.916-1.957,2.875-4.354,2.875-7.188v-1.125c0-2.416,0.813-4.416,2.438-6
		c1.625-1.582,3.645-2.375,6.063-2.375c2.416,0,4.416,0.793,6,2.375c1.582,1.584,2.375,3.584,2.375,6v1.125
		c0,7.584-2.584,13.98-7.75,19.188c-5.168,5.209-11.543,7.813-19.125,7.813c-7.668,0-14.084-2.582-19.25-7.75
		c-5.168-5.166-7.75-11.582-7.75-19.25v-43c0-2.5,0.77-4.541,2.313-6.125c1.541-1.582,3.563-2.375,6.063-2.375
		s4.541,0.793,6.125,2.375c1.582,1.584,2.375,3.625,2.375,6.125v6.625h28.625c2.5,0,4.52,0.771,6.063,2.313
		c1.541,1.543,2.313,3.563,2.313,6.063c0,5.668-2.793,8.5-8.375,8.5H310.646z M325.284,81.669c0,0-3.168,3.254-3.168,9.935
		c0,2.227-3.084,3.169-3.084,0.085c0-3.083-0.085-10.02-0.085-10.02H325.284z M419.145,111.393c0,2.5-0.793,4.521-2.375,6.063
		c-1.584,1.541-3.625,2.313-6.125,2.313s-4.521-0.771-6.063-2.313c-1.543-1.541-2.313-3.563-2.313-6.063V88.018
		c0-4.166-1.48-7.707-4.438-10.625c-2.959-2.916-6.521-4.375-10.688-4.375c-4.168,0-7.709,1.459-10.625,4.375
		c-2.918,2.918-4.375,6.459-4.375,10.625c0,4.168,1.457,7.73,4.375,10.688c2.916,2.959,6.457,4.438,10.625,4.438
		c2.5,0,4.541,0.771,6.125,2.313c1.582,1.543,2.375,3.563,2.375,6.063s-0.793,4.543-2.375,6.125
		c-1.584,1.582-3.625,2.375-6.125,2.375c-9,0-16.563-3.082-22.688-9.25c-6.125-6.166-9.188-13.75-9.188-22.75
		s3.063-16.563,9.188-22.688s13.688-9.188,22.688-9.188s16.582,3.063,22.75,9.188c6.166,6.125,9.25,13.688,9.25,22.688V111.393z
		 M393.785,86.233v9.83c0,0-6.991-0.874-8.739-1.639s-7.756-4.696-2.185-10.813S393.785,86.233,393.785,86.233z M50.896,77.294
		c-1.647,0-1.647-1.098-1.647-3.539V57.529c0-7.382-6.161-8.663-11.834-8.663c-7.077,0-13.055,2.745-13.36,10.554h5.186
		c0.244-4.636,3.477-5.979,7.87-5.979c3.233,0,7.016,0.671,7.016,5.247c0,3.965-4.941,3.477-10.615,4.636
		c-5.369,0.976-10.846,2.477-10.846,9.615c0,6.344,4.868,9.612,10.602,9.612c4.392,0,8.15-1.72,11.018-5.136
		c0,3.416,1.793,4.455,4.478,4.455C53.945,81.87,54.022,77.294,50.896,77.294z M34.425,77.294c-3.172,0-5.76-1.305-5.76-4.722
		c0-7.748,11.202-3.798,15.229-6.787l0.17,4.371C44.063,73.085,41.257,77.294,34.425,77.294z"/>
</g>
</svg>
